<?xml version="1.0" encoding="UTF-8" standalone="no"?>
<!-- Created with Inkscape (http://www.inkscape.org/) -->

<svg
   xmlns:dc="http://purl.org/dc/elements/1.1/"
   xmlns:cc="http://creativecommons.org/ns#"
   xmlns:rdf="http://www.w3.org/1999/02/22-rdf-syntax-ns#"
   xmlns:svg="http://www.w3.org/2000/svg"
   xmlns="http://www.w3.org/2000/svg"
   xmlns:sodipodi="http://sodipodi.sourceforge.net/DTD/sodipodi-0.dtd"
   xmlns:inkscape="http://www.inkscape.org/namespaces/inkscape"
   id="svg3336"
   version="1.1"
   inkscape:version="0.91 r13725"
   xml:space="preserve"
   width="213.75"
   height="45"
   viewBox="0 0 213.75 45"
   sodipodi:docname="UEA-wide.svg"><metadata
     id="metadata3342"><rdf:RDF><cc:Work
         rdf:about=""><dc:format>image/svg+xml</dc:format><dc:type
           rdf:resource="http://purl.org/dc/dcmitype/StillImage" /><dc:title></dc:title></cc:Work></rdf:RDF></metadata><defs
     id="defs3340"><clipPath
       clipPathUnits="userSpaceOnUse"
       id="clipPath3352"><path
         d="M 0,0 171,0 171,36 0,36 0,0 Z"
         id="path3354"
         inkscape:connector-curvature="0" /></clipPath><clipPath
       clipPathUnits="userSpaceOnUse"
       id="clipPath3384"><path
         d="m 0.06,0.06 170.613,0 0,35.268 -170.613,0 0,-35.268 z"
         id="path3386"
         inkscape:connector-curvature="0" /></clipPath><clipPath
       clipPathUnits="userSpaceOnUse"
       id="clipPath3396"><path
         d="M 0,0 171,0 171,36 0,36 0,0 Z"
         id="path3398"
         inkscape:connector-curvature="0" /></clipPath><clipPath
       clipPathUnits="userSpaceOnUse"
       id="clipPath3418"><path
         d="m 0.06,0.06 170.613,0 0,35.268 -170.613,0 0,-35.268 z"
         id="path3420"
         inkscape:connector-curvature="0" /></clipPath><clipPath
       clipPathUnits="userSpaceOnUse"
       id="clipPath3430"><path
         d="M 0,0 171,0 171,36 0,36 0,0 Z"
         id="path3432"
         inkscape:connector-curvature="0" /></clipPath></defs><sodipodi:namedview
     pagecolor="#ffffff"
     bordercolor="#666666"
     borderopacity="1"
     objecttolerance="10"
     gridtolerance="10"
     guidetolerance="10"
     inkscape:pageopacity="0"
     inkscape:pageshadow="2"
     inkscape:window-width="1804"
     inkscape:window-height="963"
     id="namedview3338"
     showgrid="false"
     inkscape:zoom="7.794152"
     inkscape:cx="106.875"
     inkscape:cy="22.5"
     inkscape:window-x="2001"
     inkscape:window-y="60"
     inkscape:window-maximized="0"
     inkscape:current-layer="g3350" /><g
     id="g3344"
     inkscape:groupmode="layer"
     inkscape:label="UEA_Horizontal_Cyan"
     transform="matrix(1.25,0,0,-1.25,0,45)"><g
       id="g3346" /><g
       id="g3348"><g
         id="g3350"
         clip-path="url(#clipPath3352)"><path
           d="m 80.75,21.282 c -3.07,0 -4.905,2.21 -4.905,5.911 l 0,7.314 1.892,0 0,-7.218 c 0,-2.778 1.26,-4.029 3.048,-4.029 1.782,0 2.998,1.217 2.998,3.933 l 0,7.314 1.89,0 0,-7.201 c 0,-3.771 -1.84,-6.024 -4.923,-6.024"
           style="fill:#231f20;fill-opacity:1;fill-rule:nonzero;stroke:none"
           id="path3356"
           inkscape:connector-curvature="0" /><path
           d="m 87.668,21.562 0,9.744 1.735,0 0,-1.413 c 0.589,1.091 1.522,1.634 2.708,1.634 2.047,0 3.372,-1.595 3.372,-4.066 l 0,-5.899 -1.844,0 0,5.538 c 0,1.665 -0.698,2.547 -1.89,2.547 -1.253,0 -2.238,-1.002 -2.238,-2.662 l 0,-5.423 -1.843,0"
           style="fill:#231f20;fill-opacity:1;fill-rule:nonzero;stroke:none"
           id="path3358"
           inkscape:connector-curvature="0" /><path
           d="m 97.547,34.512 1.894,0 0,-1.867 -1.894,0 0,1.867 z m 0.025,-3.199 1.842,0 0,-9.744 -1.842,0 0,9.744 z"
           style="fill:#231f20;fill-opacity:1;fill-rule:nonzero;stroke:none"
           id="path3360"
           inkscape:connector-curvature="0" /><path
           d="m 105.826,21.468 -1.628,0 -3.615,9.834 1.948,0 2.484,-7.228 2.497,7.228 1.918,0 -3.604,-9.834"
           style="fill:#231f20;fill-opacity:1;fill-rule:nonzero;stroke:none"
           id="path3362"
           inkscape:connector-curvature="0" /><path
           d="m 116.283,27.273 c -0.157,1.507 -0.926,2.482 -2.306,2.482 -1.122,0 -2.144,-0.758 -2.366,-2.484 l 4.672,0.002 z m -2.112,-5.919 c -2.718,0 -4.477,2.134 -4.477,5.266 0,2.855 1.872,4.886 4.313,4.886 2.442,0 4.155,-1.935 4.155,-5.13 0,-0.136 0,-0.291 -0.017,-0.524 l -0.008,-0.221 -6.528,0 c 0.209,-1.815 1.33,-2.55 2.596,-2.55 0.822,0 1.701,0.34 2.464,1.266 l 0.075,0.086 1.091,-1.095 -0.07,-0.094 c -0.937,-1.292 -2.121,-1.89 -3.594,-1.89"
           style="fill:#231f20;fill-opacity:1;fill-rule:nonzero;stroke:none"
           id="path3364"
           inkscape:connector-curvature="0" /><path
           d="m 121.601,21.562 -1.869,0 0,9.755 1.769,0 0,-2.166 c 0.612,1.568 1.692,2.342 3.025,2.342 0.052,0 0.257,-0.009 0.257,-0.009 l 0,-2.17 -0.207,0 c -1.662,0 -2.975,-1.301 -2.975,-4.042 l 0,-3.71"
           style="fill:#231f20;fill-opacity:1;fill-rule:nonzero;stroke:none"
           id="path3366"
           inkscape:connector-curvature="0" /><path
           d="m 128.828,21.38 c -1.123,0 -2.504,0.54 -3.363,1.37 l -0.079,0.071 0.83,1.443 0.088,-0.078 c 0.93,-0.807 1.75,-1.127 2.707,-1.127 0.992,0 1.51,0.401 1.51,1.174 0,0.681 -0.561,1.008 -1.724,1.383 -1.223,0.402 -2.895,0.983 -2.895,3.078 0,1.771 1.445,2.822 3.215,2.822 0.992,0 2.075,-0.309 2.98,-1 l 0.087,-0.065 -0.747,-1.513 -0.09,0.069 c -0.807,0.605 -1.715,0.829 -2.308,0.829 -0.909,0 -1.385,-0.343 -1.385,-1.041 0,-0.792 0.762,-0.961 1.977,-1.376 1.681,-0.574 2.651,-1.428 2.651,-3.086 0,-1.877 -1.437,-2.953 -3.454,-2.953"
           style="fill:#231f20;fill-opacity:1;fill-rule:nonzero;stroke:none"
           id="path3368"
           inkscape:connector-curvature="0" /><path
           d="m 144.046,21.029 c 0.467,-0.359 1.055,-0.707 1.68,-0.707 0.982,0 1.43,0.615 1.787,1.641 l -3.769,9.19 -0.07,0.175 1.997,0 0.029,-0.075 2.706,-6.788 2.213,6.784 0.025,0.079 1.946,0 -0.064,-0.169 -3.573,-9.82 c -0.701,-1.835 -1.582,-2.858 -3.218,-2.858 -0.719,0 -1.657,0.393 -2.307,0.855 l 0.618,1.693"
           style="fill:#231f20;fill-opacity:1;fill-rule:nonzero;stroke:none"
           id="path3370"
           inkscape:connector-curvature="0" /><path
           d="m 159.693,29.703 c -1.426,0 -2.724,-1.127 -2.724,-3.226 0,-2.111 1.311,-3.293 2.756,-3.293 1.436,0 2.746,1.129 2.746,3.217 0,1.92 -1.202,3.299 -2.778,3.299 m 0,-8.359 c -2.538,0 -4.598,2.129 -4.598,5.06 0,2.99 2.072,5.133 4.63,5.133 2.546,0 4.611,-2.127 4.611,-5.057 0,-2.989 -2.079,-5.136 -4.643,-5.136"
           style="fill:#231f20;fill-opacity:1;fill-rule:nonzero;stroke:none"
           id="path3372"
           inkscape:connector-curvature="0" /><path
           d="m 168.266,21.576 -1.87,0 0,7.91 -1.173,0 0,1.824 1.173,0 0,1.058 c 0,2.457 1.893,2.96 2.769,2.96 0.585,0 1.001,-0.076 1.437,-0.255 l 0.071,-0.031 0,-1.826 -0.091,0.044 c -0.263,0.142 -0.643,0.243 -1.044,0.243 -0.925,0 -1.288,-0.518 -1.288,-1.353 l 0,-0.838 2.406,0 0,-1.826 -2.39,0 0,-7.91"
           style="fill:#231f20;fill-opacity:1;fill-rule:nonzero;stroke:none"
           id="path3374"
           inkscape:connector-curvature="0" /><path
           d="m 84.347,3.106 -8.486,0 0,12.904 8.402,0 0,-1.907 -6.482,0 0,-3.422 5.742,0 0,-1.904 -5.742,0 0,-3.785 6.566,0 0,-1.886"
           style="fill:#231f20;fill-opacity:1;fill-rule:nonzero;stroke:none"
           id="path3376"
           inkscape:connector-curvature="0" /><path
           d="m 87.208,6.03 c 0,-0.894 0.758,-1.423 1.739,-1.423 1.556,0 2.442,0.934 2.442,2.17 l 0,0.48 c -0.368,0.207 -1.198,0.425 -2.098,0.425 -0.898,0 -2.083,-0.393 -2.083,-1.652 z m 1.49,-3.145 c -1.634,0 -3.356,0.925 -3.356,3.142 0,2.049 1.558,3.365 3.91,3.365 0.907,0 1.66,-0.193 2.099,-0.378 l 0,0.14 c 0,1.06 -0.552,2.069 -2.141,2.069 -1.071,0 -1.925,-0.409 -2.729,-0.939 l -0.103,-0.061 -0.531,1.733 0.088,0.046 c 0.788,0.519 2.093,1.019 3.441,1.019 2.406,0 3.823,-1.47 3.823,-4.102 l 0,-5.826 -1.615,0 0,1.249 C 91.22,3.652 90.157,2.885 88.698,2.885"
           style="fill:#231f20;fill-opacity:1;fill-rule:nonzero;stroke:none"
           id="path3378"
           inkscape:connector-curvature="0" /></g></g><g
       id="g3380"><g
         id="g3382"
         clip-path="url(#clipPath3384)"><path
           d="m 119.64,8.339 -1.885,5.038 -2.018,-5.044 3.903,0.006 z m 4.171,-5.236 -2.12,0 -1.359,3.334 -5.311,0 -1.32,-3.334 -1.961,0 5.295,12.913 1.48,0 0.03,-0.074 5.266,-12.839"
           style="fill:#231f20;fill-opacity:1;fill-rule:nonzero;stroke:none"
           id="path3388"
           inkscape:connector-curvature="0" /><path
           d="m 138.982,11.223 c -1.332,0 -2.48,-0.871 -2.48,-2.718 0,-1.848 1.193,-2.82 2.48,-2.82 1.452,0 2.699,1.03 2.699,2.764 0,2.045 -1.364,2.774 -2.699,2.774 M 138.996,0 c -1.459,0 -2.784,0.467 -3.937,1.392 l -0.078,0.065 0.792,1.662 0.095,-0.082 c 0.969,-0.82 2.055,-1.232 3.218,-1.232 1.901,0 2.772,1.326 2.772,3.08 l 0,0.8 c -0.585,-1.24 -1.841,-1.839 -3.124,-1.839 -2.023,0 -4.116,1.62 -4.116,4.581 0,3.026 2.093,4.64 4.116,4.64 1.288,0 2.596,-0.618 3.221,-1.748 l 0,1.515 1.64,0 0,-7.913 c 0,-1.511 -0.379,-2.715 -1.119,-3.573 C 141.711,0.467 140.407,0 138.996,0"
           style="fill:#231f20;fill-opacity:1;fill-rule:nonzero;stroke:none"
           id="path3390"
           inkscape:connector-curvature="0" /></g></g><g
       id="g3392"><g
         id="g3394"
         clip-path="url(#clipPath3396)"><path
           d="m 145.765,3.085 1.841,0 0,12.932 -1.841,0 0,-12.932 z"
           style="fill:#231f20;fill-opacity:1;fill-rule:nonzero;stroke:none"
           id="path3400"
           inkscape:connector-curvature="0" /><path
           d="m 141.214,21.385 c -1.619,0 -2.604,1.032 -2.604,2.905 l 0,5.167 -1.186,0 0,1.841 1.154,0.002 0.004,2.835 1.878,0 0,-2.827 2.496,0 0,-1.851 -2.496,0 0,-4.68 c 0,-0.947 0.319,-1.51 1.119,-1.51 0.421,0 0.924,0.132 1.231,0.313 l 0.153,0.085 -0.005,-1.781 -0.059,-0.033 c -0.491,-0.297 -1.1,-0.466 -1.685,-0.466"
           style="fill:#231f20;fill-opacity:1;fill-rule:nonzero;stroke:none"
           id="path3402"
           inkscape:connector-curvature="0" /><path
           d="m 133.883,34.52 1.892,0 0,-1.867 -1.892,0 0,1.867 z m 0.025,-3.206 1.842,0 0,-9.755 -1.842,0 0,9.755 z"
           style="fill:#231f20;fill-opacity:1;fill-rule:nonzero;stroke:none"
           id="path3404"
           inkscape:connector-curvature="0" /><path
           d="m 97.914,2.891 c -1.124,0 -2.504,0.541 -3.363,1.37 l -0.079,0.071 0.83,1.443 0.089,-0.078 c 0.929,-0.806 1.75,-1.127 2.706,-1.127 0.992,0 1.51,0.402 1.51,1.174 0,0.682 -0.56,1.008 -1.723,1.383 -1.224,0.401 -2.897,0.983 -2.897,3.078 0,1.771 1.446,2.82 3.216,2.82 0.992,0 2.075,-0.306 2.981,-0.998 l 0.086,-0.065 -0.747,-1.513 -0.09,0.069 c -0.807,0.605 -1.715,0.83 -2.309,0.83 -0.907,0 -1.385,-0.344 -1.385,-1.042 0,-0.792 0.763,-0.96 1.978,-1.375 1.681,-0.575 2.651,-1.429 2.651,-3.087 0,-1.877 -1.436,-2.953 -3.454,-2.953"
           style="fill:#231f20;fill-opacity:1;fill-rule:nonzero;stroke:none"
           id="path3406"
           inkscape:connector-curvature="0" /><path
           d="m 106.104,2.906 c -1.62,0 -2.605,1.031 -2.605,2.904 l 0,5.2 -1.186,0 0,1.826 1.153,-0.002 0.005,2.821 1.879,0 0,-2.819 2.495,0 0,-1.826 -2.495,0 0,-4.711 c 0,-0.949 0.317,-1.51 1.118,-1.51 0.421,0 0.924,0.131 1.232,0.312 l 0.154,0.085 0.002,-1.781 -0.067,-0.04 c -0.493,-0.297 -1.101,-0.459 -1.685,-0.459"
           style="fill:#231f20;fill-opacity:1;fill-rule:nonzero;stroke:none"
           id="path3408"
           inkscape:connector-curvature="0" /><path
           d="m 125.125,3.094 0,9.747 1.734,0 0,-1.417 c 0.589,1.092 1.523,1.634 2.708,1.634 2.046,0 3.372,-1.595 3.372,-4.065 l 0,-5.899 -1.844,0 0,5.538 c 0,1.665 -0.699,2.546 -1.89,2.546 -1.252,0 -2.239,-1.001 -2.239,-2.661 l 0,-5.423 -1.841,0"
           style="fill:#231f20;fill-opacity:1;fill-rule:nonzero;stroke:none"
           id="path3410"
           inkscape:connector-curvature="0" /><path
           d="m 149.687,16.011 1.895,0 0,-1.866 -1.895,0 0,1.866 z m 0.025,-3.185 1.845,0 0,-9.736 -1.845,0 0,9.736 z"
           style="fill:#231f20;fill-opacity:1;fill-rule:nonzero;stroke:none"
           id="path3412"
           inkscape:connector-curvature="0" /></g></g><g
       id="g3414"><g
         id="g3416"
         clip-path="url(#clipPath3418)"><path
           d="m 155.082,6.043 c 0,-0.895 0.758,-1.423 1.738,-1.423 1.555,0 2.442,0.935 2.442,2.17 l 0,0.478 c -0.367,0.207 -1.199,0.426 -2.097,0.426 -0.9,0 -2.083,-0.392 -2.083,-1.651 z m 1.489,-3.146 c -1.634,0 -3.357,0.926 -3.357,3.143 0,2.048 1.559,3.366 3.911,3.366 0.906,0 1.661,-0.195 2.1,-0.381 l 0,0.141 c 0,1.06 -0.552,2.069 -2.142,2.069 -1.071,0 -1.924,-0.408 -2.729,-0.938 l -0.103,-0.061 -0.531,1.733 0.089,0.047 c 0.786,0.519 2.092,1.017 3.44,1.017 2.407,0 3.823,-1.471 3.823,-4.101 l 0,-5.827 -1.615,0 0,1.249 c -0.364,-0.69 -1.427,-1.457 -2.886,-1.457"
           style="fill:#231f20;fill-opacity:1;fill-rule:nonzero;stroke:none"
           id="path3422"
           inkscape:connector-curvature="0" /><path
           d="m 17.387,3.633 c -0.386,0 -0.123,0.01 -0.485,0.01 -4.471,0 -7.828,3.073 -7.828,11.675 l 0,12.678 c 0,4.347 1.924,5.997 4.643,5.997 l 0,0.516 -13.717,0 0,-0.51 c 2.384,-0.046 3.246,-2.073 3.246,-4.737 l 0,-12.497 c 0,-9.416 4.507,-13.667 12.679,-13.667 0.089,0 0.288,0 0.288,0 l 1.173,0 0.001,0.535"
           style="fill:#231f20;fill-opacity:1;fill-rule:nonzero;stroke:none"
           id="path3424"
           inkscape:connector-curvature="0" /></g></g><g
       id="g3426"><g
         id="g3428"
         clip-path="url(#clipPath3430)"><path
           d="m 44.946,12.377 c -0.053,4.719 -1.116,5.734 -5.83,5.78 l 0,0.466 c 4.714,0.047 5.777,1.059 5.83,5.779 l 0.445,0 c 0.054,-4.72 1.116,-5.728 5.83,-5.775 l 0,-0.47 c -4.714,-0.046 -5.776,-1.061 -5.83,-5.78 l -0.445,0"
           style="fill:#00adef;fill-opacity:1;fill-rule:nonzero;stroke:none"
           id="path3434"
           inkscape:connector-curvature="0" /><path
           d="m 19.655,3.629 c 4.265,0 6.141,2.896 6.141,6.989 0,4.903 0,0 0,0 l -0.004,17.799 c 0,4.18 -2.094,5.571 -4.633,5.571 l -0.002,0.523 24.228,0 0.011,-6.576 -0.43,0.001 c -0.723,3.866 -2.231,5.375 -7.147,5.375 0,0 -0.822,0 -1.138,0 -4.623,0 -5.533,-1.474 -5.533,-5.611 0,-1.182 0,-3.849 0,-3.849 0,-5.017 2.049,-5.222 5.91,-5.222 l 0,-0.471 c -3.861,0 -5.91,-0.422 -5.91,-5.487 l 0,-1.648 c 0,-6.205 0.784,-6.619 6,-6.619 3.082,0 6.841,0.791 7.808,5.045 l 0.44,-0.002 0,-6.349 -25.741,0 0,0.531"
           style="fill:#231f20;fill-opacity:1;fill-rule:nonzero;stroke:none"
           id="path3436"
           inkscape:connector-curvature="0" /><path
           d="m 54.017,3.633 c 4.259,0 5.335,2.75 3.404,7.063 l -6.527,16.323 1.886,8.074 0.36,10e-4 c 0,0 8.975,-21.311 11.201,-25.623 2.349,-4.551 4.324,-5.842 6.271,-5.842 l 0,-0.531 -16.595,0 0,0.535"
           style="fill:#231f20;fill-opacity:1;fill-rule:nonzero;stroke:none"
           id="path3438"
           inkscape:connector-curvature="0" /></g></g></g></svg>